HIERARCHY
ROOT SpineBase
{
  OFFSET 0.000000 0.000000 0.000000
  CHANNELS 6 Xposition Yposition Zposition Zrotation Xrotation Yrotation
  JOINT SpineMid
  {
    OFFSET 0.000000 31.446682 0.000000
    CHANNELS 3 Zrotation Xrotation Yrotation
    JOINT SpineShoulder
    {
      OFFSET -0.015199 23.186540 -0.888321
      CHANNELS 3 Zrotation Xrotation Yrotation
      JOINT Neck
      {
        OFFSET -0.002205 7.645280 -0.517510
        CHANNELS 3 Zrotation Xrotation Yrotation
        JOINT Head
        {
          OFFSET 9.331684 9.090399 2.605963
          CHANNELS 3 Zrotation Xrotation Yrotation
          End Site
          {
            OFFSET 0 0 0
          }
        }
      }
      JOINT ShoulderLeft
      {
        OFFSET -7.042533 -3.115896 -12.700555
        CHANNELS 3 Zrotation Xrotation Yrotation
        JOINT ElbowLeft
        {
          OFFSET -0.144061 -26.226176 -6.754648
          CHANNELS 3 Zrotation Xrotation Yrotation
          JOINT WristLeft
          {
            OFFSET 6.570166 -25.029258 -2.284903
            CHANNELS 3 Zrotation Xrotation Yrotation
            JOINT HandLeft
            {
              OFFSET 0.689391 -7.465405 1.728734
              CHANNELS 3 Zrotation Xrotation Yrotation
              JOINT HandTipLeft
              {
                OFFSET 3.808767 -6.507811 0.183749
                CHANNELS 3 Zrotation Xrotation Yrotation
                End Site
                {
                  OFFSET 0 0 0
                }
              }
              JOINT ThumbLeft
              {
                OFFSET -4.138860 -0.862070 2.872494
                CHANNELS 3 Zrotation Xrotation Yrotation
                End Site
                {
                  OFFSET 0 0 0
                }
              }
            }
          }
        }
      }
      JOINT ShoulderRight
      {
        OFFSET 8.606655 -7.137114 12.580763
        CHANNELS 3 Zrotation Xrotation Yrotation
        JOINT ElbowRight
        {
          OFFSET 1.962590 -25.200346 6.677527
          CHANNELS 3 Zrotation Xrotation Yrotation
          JOINT WristRight
          {
            OFFSET -0.703889 -25.692735 5.638289
            CHANNELS 3 Zrotation Xrotation Yrotation
            JOINT HandRight
            {
              OFFSET 4.148341 -3.505737 -3.016640
              CHANNELS 3 Zrotation Xrotation Yrotation
              JOINT HandTipRight
              {
                OFFSET 0.419985 -0.309651 -0.614473
                CHANNELS 3 Zrotation Xrotation Yrotation
                End Site
                {
                  OFFSET 0 0 0
                }
              }
              JOINT ThumbRight
              {
                OFFSET 0.696253 0.477121 -1.341966
                CHANNELS 3 Zrotation Xrotation Yrotation
                End Site
                {
                  OFFSET 0 0 0
                }
              }
            }
          }
        }
      }
    }
  }
  JOINT HipLeft
  {
    OFFSET -3.651984 2.068126 -6.826945
    CHANNELS 3 Zrotation Xrotation Yrotation
    JOINT KneeLeft
    {
      OFFSET 0.796076 -37.531189 -4.801770
      CHANNELS 3 Zrotation Xrotation Yrotation
      JOINT AnkleLeft
      {
        OFFSET -2.697002 -41.543733 4.431398
        CHANNELS 3 Zrotation Xrotation Yrotation
        JOINT FootLeft
        {
          OFFSET 4.130828 -5.991913 -1.470282
          CHANNELS 3 Zrotation Xrotation Yrotation
          End Site
          {
            OFFSET 0 0 0
          }
        }
      }
    }
  }
  JOINT HipRight
  {
    OFFSET 3.104833 0.139964 0.115613
    CHANNELS 3 Zrotation Xrotation Yrotation
    JOINT KneeRight
    {
      OFFSET -9.884536 -36.977401 -7.407191
      CHANNELS 3 Zrotation Xrotation Yrotation
      JOINT AnkleRight
      {
        OFFSET 6.437341 -31.431970 -9.507571
        CHANNELS 3 Zrotation Xrotation Yrotation
        JOINT FootRight
        {
          OFFSET 5.777981 -5.104269 -4.229182
          CHANNELS 3 Zrotation Xrotation Yrotation
          End Site
          {
            OFFSET 0 0 0
          }
        }
      }
    }
  }
}
MOTION
Frames: 10
Frame Time: 0.033333
34.306705 84.596984 314.524396 0.838600 -1.349012 -51.951474 -0.393478 -0.155649 51.980931 -0.525338 -0.627311 -0.016482 1.131523 6.102279 -4.828333 0.000000 0.000000 0.000000 -3.123660 2.233627 0.927782 -3.119298 -2.005371 -0.778635 1.631519 12.094024 0.212708 -16.825888 -7.527190 -1.895926 0.000000 0.000000 0.000000 0.000000 0.000000 0.000000 0.051745 1.762528 0.003218 -0.000000 0.000000 0.000000 1.308073 0.390262 -0.657469 -1.303541 -0.405143 0.648405 0.000000 0.000000 0.000000 0.000000 0.000000 0.000000 -2.499139 0.238799 52.048867 -5.206012 -3.692769 -0.716685 26.635474 29.709332 6.523209 0.000000 0.000000 0.000000 -25.943129 -11.023043 51.143148 25.206078 -29.475090 -2.499778 13.637167 34.467462 3.056355 0.000000 0.000000 0.000000
34.077424 85.285541 314.036745 -1.160557 -0.719871 -50.699983 -0.087143 -0.249727 50.638644 -0.737123 -0.382856 -0.093000 5.541850 5.447330 -5.514347 0.000000 0.000000 0.000000 -1.377631 2.616248 1.135095 -5.743197 -2.910937 -0.771061 -0.215450 9.958175 -1.050307 -15.501944 -4.347793 1.294044 0.000000 0.000000 0.000000 0.000000 0.000000 0.000000 2.143687 1.198010 0.123140 -0.000000 0.000000 0.000000 1.313725 0.391618 -0.660665 -1.771096 -0.359122 1.640007 0.000000 0.000000 0.000000 0.000000 0.000000 0.000000 0.178138 1.353997 50.690587 -6.080392 -2.864651 -0.611615 26.546251 28.138062 6.129380 0.000000 0.000000 0.000000 -19.221196 -6.806480 50.831474 19.222772 -32.232876 -4.246498 13.654848 38.088262 1.839343 0.000000 0.000000 0.000000
34.060107 86.262611 313.126271 -3.659235 0.742150 -52.407239 0.291960 -0.257358 52.278014 -0.807183 -0.219497 -0.174282 9.257188 4.346808 -5.988542 0.000000 0.000000 0.000000 -0.614007 2.311017 1.698182 -5.512570 -3.036642 -0.906162 -2.113851 6.388303 -2.546159 -17.065264 0.692943 5.780561 0.000000 0.000000 0.000000 0.000000 0.000000 0.000000 4.493383 -0.112271 0.308661 -0.000000 0.000000 0.000000 1.315517 0.392504 -0.661151 -2.005352 -0.456735 1.981594 0.000000 0.000000 0.000000 0.000000 0.000000 0.000000 3.898283 2.366980 52.230233 -6.925274 -1.746770 -0.449002 27.058273 26.936865 5.676203 0.000000 0.000000 0.000000 -9.668591 -2.281103 52.773523 10.805154 -37.225642 -6.575644 8.252444 39.360304 2.169505 0.000000 0.000000 0.000000
34.281150 87.486803 312.287224 -6.341140 2.465772 -54.964430 0.508186 -0.218829 54.836716 -0.831457 -0.128881 -0.262508 14.563894 2.197728 -5.940925 0.000000 0.000000 0.000000 1.386664 1.540759 2.004861 -7.032951 -2.842961 -0.694328 -2.643549 1.240047 -4.583345 -19.515652 7.041457 11.831188 0.000000 0.000000 0.000000 0.000000 0.000000 0.000000 7.075329 -1.738019 0.585878 -0.000000 0.000000 0.000000 1.315037 0.393688 -0.659375 -2.276195 -0.579188 2.369923 0.000000 0.000000 0.000000 0.000000 0.000000 0.000000 7.997297 2.867926 54.650116 -7.000919 0.168028 -0.248787 27.863055 26.365870 5.406352 0.000000 0.000000 0.000000 -0.491763 3.808430 54.679286 1.935917 -43.188524 -8.352030 2.526231 41.518639 3.925358 0.000000 0.000000 0.000000
35.030189 88.470243 311.950130 -9.420465 4.319030 -57.061163 0.699596 -0.043442 57.033889 -0.687460 -0.095646 -0.346477 20.002309 -0.077345 -5.542786 0.000000 0.000000 0.000000 3.713232 0.576897 2.323900 -7.453528 -2.952450 -0.619461 -5.394933 -1.459647 -6.331243 -18.478490 8.815488 14.252493 0.000000 0.000000 0.000000 0.000000 0.000000 0.000000 9.805290 -3.500343 0.962639 -0.000000 0.000000 0.000000 1.314175 0.395200 -0.656898 -2.562858 -0.680482 2.822937 0.000000 0.000000 0.000000 0.000000 0.000000 0.000000 11.896340 3.915385 56.612665 -7.114110 1.937136 -0.166699 29.200807 26.420534 5.545363 0.000000 0.000000 0.000000 6.108742 10.691895 55.458110 -5.935777 -49.262270 -9.352981 1.789725 45.625747 4.012637 0.000000 0.000000 0.000000
36.541125 88.987326 312.215685 -12.338409 5.875705 -57.686884 0.924160 0.211691 57.837831 -0.364604 -0.194081 -0.408766 24.186462 -1.593322 -5.187038 0.000000 0.000000 0.000000 6.564321 -0.299569 2.442038 -7.847340 -3.571849 -0.632396 -9.820441 -0.382152 -7.127550 -16.001473 6.018034 12.802799 0.000000 0.000000 0.000000 0.000000 0.000000 0.000000 12.097269 -4.842031 1.329996 -0.000000 0.000000 0.000000 1.314790 0.397371 -0.654904 -2.848628 -0.753764 3.313904 0.000000 0.000000 0.000000 0.000000 0.000000 0.000000 14.703041 5.050195 57.189402 -7.347653 2.884726 -0.250711 31.237716 27.545231 5.972459 0.000000 0.000000 0.000000 12.522068 17.089936 54.385418 -14.254588 -53.694449 -10.593082 -0.409689 47.740576 6.223617 0.000000 0.000000 0.000000
38.517204 88.754127 312.887603 -14.784884 7.123214 -55.909311 0.642596 0.305490 56.283074 -0.088577 -0.278327 -0.468296 27.685977 -3.129552 -4.480861 0.000000 0.000000 0.000000 10.006558 -1.343456 2.512239 -8.290859 -4.860237 -0.795386 -14.473226 3.343085 -6.593172 -12.956376 0.643831 8.976753 0.000000 0.000000 0.000000 0.000000 0.000000 0.000000 14.359773 -6.243699 1.755962 -0.000000 0.000000 0.000000 1.315322 0.399762 -0.652585 -3.278209 -1.221948 3.580305 0.000000 0.000000 0.000000 0.000000 0.000000 0.000000 16.939994 5.433051 55.493079 -7.840957 3.801888 -0.383431 33.593224 29.377256 6.873521 0.000000 0.000000 0.000000 17.387383 20.286047 51.455224 -17.555807 -56.944149 -11.452169 -8.024413 47.267385 13.710135 0.000000 0.000000 0.000000
40.898195 87.299794 314.116570 -16.176496 7.731676 -52.260864 0.122877 0.262282 52.782424 0.151641 -0.325437 -0.498249 29.530187 -4.207211 -3.729018 0.000000 0.000000 0.000000 13.188828 -1.310510 2.468947 -9.231404 -7.336423 -1.166441 -19.423254 7.096121 -5.483399 -10.165339 -2.426101 7.750049 0.000000 0.000000 0.000000 0.000000 0.000000 0.000000 15.867873 -7.179429 2.071709 -0.000000 0.000000 0.000000 1.315934 0.402087 -0.650410 -3.341911 -0.749541 4.344694 0.000000 0.000000 0.000000 0.000000 0.000000 0.000000 17.513334 4.807472 52.195136 -8.485201 4.153203 -0.681313 31.359600 27.838569 8.900073 0.000000 0.000000 0.000000 20.113587 20.231196 47.549339 -18.062775 -57.919872 -11.780649 -13.271391 44.034200 18.263229 0.000000 0.000000 0.000000
43.602886 85.622438 315.627691 -16.879560 8.032147 -50.863195 -0.511435 0.228917 51.479070 0.414414 -0.419147 -0.509644 29.333410 -4.808348 -3.122472 0.000000 0.000000 0.000000 16.053538 -0.543606 2.298276 -10.794615 -10.199808 -1.537646 -25.760765 11.156282 -4.033465 -5.075289 -5.690891 7.061620 0.000000 0.000000 0.000000 0.000000 0.000000 0.000000 16.755072 -7.834474 2.284607 -0.000000 0.000000 0.000000 1.316465 0.404286 -0.648312 -3.422272 -0.362630 5.021003 0.000000 0.000000 0.000000 0.000000 0.000000 0.000000 17.046217 3.965638 51.172077 -8.822539 4.862167 -1.022118 31.705388 27.979655 10.648881 0.000000 0.000000 0.000000 18.790193 18.942790 46.978179 -14.681148 -57.271090 -11.195231 -16.932262 38.503746 20.229879 0.000000 0.000000 0.000000
46.484538 83.369260 317.487960 -16.509607 7.713162 -49.943567 -1.086864 0.252463 50.529050 0.914424 -0.650646 -0.467077 26.862798 -4.711588 -2.869748 0.000000 0.000000 0.000000 18.314744 1.125755 1.661754 -13.239116 -13.231527 -1.826760 -33.522665 14.722422 -2.260773 1.973255 -8.921870 6.819610 0.000000 0.000000 0.000000 0.000000 0.000000 0.000000 16.236741 -7.761451 2.202615 -0.000000 0.000000 0.000000 1.316836 0.405946 -0.646703 -3.478060 -0.059769 5.530151 0.000000 0.000000 0.000000 0.000000 0.000000 0.000000 14.613052 2.690736 50.725107 -8.669170 5.164902 -1.541222 32.491723 28.157616 12.328921 0.000000 0.000000 0.000000 20.537774 20.516567 44.977467 -20.996925 -56.952055 -11.821334 -15.267759 36.467912 19.194881 0.000000 0.000000 0.000000
